<svg width="28" height="28" viewBox="0 0 28 28" fill="none" xmlns="http://www.w3.org/2000/svg">
<path d="M17.5 26.25H14.875C14.411 26.2495 13.9662 26.065 13.6381 25.7369C13.31 25.4088 13.1255 24.964 13.125 24.5V20.125H14.875V24.5H17.5V20.125H19.25V16.625C19.2498 16.393 19.1575 16.1706 18.9935 16.0065C18.8294 15.8425 18.607 15.7502 18.375 15.75H10.745L8.995 10.5H3.5C3.26801 10.5002 3.04558 10.5925 2.88154 10.7565C2.71749 10.9206 2.62523 11.143 2.625 11.375V16.625H4.375V24.5H7.875V18.375H9.625V24.5C9.62454 24.964 9.44001 25.4088 9.11193 25.7369C8.78384 26.065 8.33899 26.2495 7.875 26.25H4.375C3.91101 26.2495 3.46616 26.065 3.13807 25.7369C2.80999 25.4088 2.62546 24.964 2.625 24.5V18.375C2.16101 18.3745 1.71616 18.19 1.38807 17.8619C1.05999 17.5338 0.875463 17.089 0.875 16.625V11.375C0.875695 10.679 1.15248 10.0117 1.64461 9.51961C2.13674 9.02748 2.80402 8.7507 3.5 8.75H8.995C9.36224 8.74977 9.72024 8.86519 10.0182 9.0799C10.3161 9.2946 10.5389 9.59768 10.6549 9.94613L12.005 14H18.375C19.071 14.0007 19.7383 14.2775 20.2304 14.7696C20.7225 15.2617 20.9993 15.929 21 16.625V20.125C20.9995 20.589 20.815 21.0338 20.4869 21.3619C20.1588 21.69 19.714 21.8745 19.25 21.875V24.5C19.2495 24.964 19.065 25.4088 18.7369 25.7369C18.4088 26.065 17.964 26.2495 17.5 26.25Z" fill="#262626"/>
<path d="M24.5 26.25H22.75V16.625H25.375V11.375C25.3748 11.143 25.2825 10.9206 25.1185 10.7565C24.9544 10.5925 24.732 10.5002 24.5 10.5H21V8.75H24.5C25.196 8.75069 25.8633 9.02748 26.3554 9.51961C26.8475 10.0117 27.1243 10.679 27.125 11.375V16.625C27.1245 17.089 26.94 17.5338 26.6119 17.8619C26.2838 18.19 25.839 18.3745 25.375 18.375H24.5V26.25Z" fill="#262626"/>
<path d="M6.125 7.875C5.43277 7.875 4.75608 7.66973 4.18051 7.28514C3.60493 6.90056 3.15633 6.35393 2.89142 5.71439C2.62652 5.07485 2.5572 4.37112 2.69225 3.69219C2.8273 3.01325 3.16064 2.38961 3.65013 1.90013C4.13961 1.41064 4.76325 1.0773 5.44219 0.942253C6.12112 0.807205 6.82485 0.876516 7.46439 1.14142C8.10394 1.40633 8.65056 1.85493 9.03514 2.43051C9.41973 3.00608 9.625 3.68277 9.625 4.375C9.62384 5.3029 9.25472 6.19247 8.5986 6.8486C7.94247 7.50472 7.0529 7.87384 6.125 7.875ZM6.125 2.625C5.77888 2.625 5.44054 2.72764 5.15275 2.91993C4.86497 3.11222 4.64067 3.38553 4.50821 3.70531C4.37576 4.02508 4.3411 4.37694 4.40863 4.71641C4.47615 5.05588 4.64282 5.3677 4.88756 5.61244C5.13231 5.85718 5.44413 6.02385 5.78359 6.09138C6.12306 6.1589 6.47493 6.12424 6.7947 5.99179C7.11447 5.85934 7.38778 5.63504 7.58007 5.34725C7.77237 5.05946 7.875 4.72112 7.875 4.375C7.87454 3.91102 7.69001 3.46616 7.36193 3.13808C7.03384 2.80999 6.58899 2.62546 6.125 2.625Z" fill="#262626"/>
<path d="M21.875 7.875C21.1828 7.875 20.5061 7.66973 19.9305 7.28514C19.3549 6.90056 18.9063 6.35393 18.6414 5.71439C18.3765 5.07485 18.3072 4.37112 18.4423 3.69219C18.5773 3.01325 18.9106 2.38961 19.4001 1.90013C19.8896 1.41064 20.5133 1.0773 21.1922 0.942253C21.8711 0.807205 22.5749 0.876516 23.2144 1.14142C23.8539 1.40633 24.4006 1.85493 24.7851 2.43051C25.1697 3.00608 25.375 3.68277 25.375 4.375C25.3738 5.3029 25.0047 6.19247 24.3486 6.8486C23.6925 7.50472 22.8029 7.87384 21.875 7.875ZM21.875 2.625C21.5289 2.625 21.1905 2.72764 20.9028 2.91993C20.615 3.11222 20.3907 3.38553 20.2582 3.70531C20.1258 4.02508 20.0911 4.37694 20.1586 4.71641C20.2262 5.05588 20.3928 5.3677 20.6376 5.61244C20.8823 5.85718 21.1941 6.02385 21.5336 6.09138C21.8731 6.1589 22.2249 6.12424 22.5447 5.99179C22.8645 5.85934 23.1378 5.63504 23.3301 5.34725C23.5224 5.05946 23.625 4.72112 23.625 4.375C23.6245 3.91102 23.44 3.46616 23.1119 3.13808C22.7838 2.80999 22.339 2.62546 21.875 2.625Z" fill="#262626"/>
<path d="M16.1875 13.125C15.5818 13.125 14.9897 12.9454 14.4861 12.6089C13.9824 12.2724 13.5899 11.7941 13.3581 11.2345C13.1263 10.6749 13.0657 10.0591 13.1838 9.46504C13.302 8.87097 13.5937 8.32529 14.022 7.89699C14.4503 7.46869 14.996 7.17701 15.59 7.05885C16.1841 6.94068 16.7999 7.00133 17.3595 7.23312C17.9191 7.46491 18.3974 7.85744 18.7339 8.36107C19.0704 8.86469 19.25 9.4568 19.25 10.0625C19.2491 10.8744 18.9261 11.6529 18.352 12.227C17.7779 12.8011 16.9994 13.1241 16.1875 13.125ZM16.1875 8.75C15.9279 8.75 15.6742 8.82698 15.4583 8.9712C15.2425 9.11542 15.0743 9.3204 14.9749 9.56023C14.8756 9.80006 14.8496 10.064 14.9002 10.3186C14.9509 10.5732 15.0759 10.807 15.2594 10.9906C15.443 11.1741 15.6768 11.2991 15.9314 11.3498C16.186 11.4004 16.4499 11.3744 16.6898 11.2751C16.9296 11.1758 17.1346 11.0075 17.2788 10.7917C17.423 10.5758 17.5 10.3221 17.5 10.0625C17.4995 9.71455 17.3611 9.38098 17.1151 9.13494C16.869 8.88889 16.5355 8.75046 16.1875 8.75Z" fill="#262626"/>
</svg>
