<svg width="20" height="28" viewBox="0 0 20 28" fill="none" xmlns="http://www.w3.org/2000/svg">
<g clip-path="url(#clip0)">
<path d="M17.2916 0.875H2.70829C1.93501 0.875782 1.19365 1.15259 0.646859 1.64471C0.100066 2.13682 -0.207504 2.80405 -0.208372 3.5V25.375C-0.207793 25.839 -0.00274649 26.2838 0.361782 26.6119C0.726311 26.9399 1.22055 27.1245 1.73607 27.125H18.2638C18.7794 27.1245 19.2736 26.9399 19.6381 26.6119C20.0027 26.2838 20.2077 25.839 20.2083 25.375V3.5C20.2074 2.80405 19.8999 2.13682 19.3531 1.64471C18.8063 1.15259 18.0649 0.875782 17.2916 0.875ZM18.2638 25.375H1.73607V13.125H18.2638V25.375ZM18.2638 11.375H1.73607V3.5C1.73638 3.26802 1.83891 3.04562 2.02117 2.88159C2.20343 2.71755 2.45054 2.62528 2.70829 2.625H17.2916C17.5494 2.62528 17.7965 2.71755 17.9788 2.88159C18.161 3.04562 18.2635 3.26802 18.2638 3.5V11.375Z" fill="#262626"/>
<path d="M3.19453 15.3125H5.13898V20.5625H3.19453V15.3125Z" fill="#262626"/>
<path d="M3.19453 5.6875H5.13898V9.1875H3.19453V5.6875Z" fill="#262626"/>
</g>
<defs>
<clipPath id="clip0">
<rect width="20" height="28" fill="white"/>
</clipPath>
</defs>
</svg>
