<svg width="22" height="22" viewBox="0 0 22 22" fill="none" xmlns="http://www.w3.org/2000/svg">
<g clip-path="url(#clip0)">
<path d="M18.7946 3.19714L18.6535 3.33882C16.623 1.31568 13.9234 0.201208 11.046 0.2L18.7946 3.19714ZM18.7946 3.19714L18.6535 3.33883C20.6841 5.36186 21.8012 8.04974 21.8 10.9094C21.7977 16.809 16.9737 21.6109 11.0461 21.6109H11.0416C11.0416 21.6109 11.0416 21.6109 11.0416 21.6109C9.24157 21.6104 7.47303 21.1609 5.90237 20.3082L5.83291 20.2705L5.75643 20.2905L0.284743 21.719L1.74688 16.404L1.76912 16.3232M18.7946 3.19714L1.76912 16.3232M1.76912 16.3232L1.72706 16.2506M1.76912 16.3232L1.72706 16.2506M1.72706 16.2506C0.786159 14.628 0.291088 12.787 0.291883 10.9009C0.294266 5.00162 5.11774 0.200044 11.0459 0.2L1.72706 16.2506ZM13.7203 12.545L13.7203 12.5451C13.529 12.8307 12.9952 13.4545 12.8376 13.6337L13.7203 12.545ZM13.7203 12.545C13.7898 12.4411 13.8347 12.4308 13.859 12.428C13.9051 12.4227 13.9703 12.4378 14.1015 12.4854C14.215 12.5266 14.6022 12.708 15.0098 12.9038C15.4111 13.0965 15.815 13.2949 15.9508 13.3626C16.0118 13.393 16.0645 13.4183 16.1112 13.4408C16.1783 13.473 16.2333 13.4994 16.2834 13.5268C16.3556 13.5662 16.3811 13.5895 16.3899 13.6003C16.3906 13.6044 16.3971 13.6269 16.4012 13.6783C16.4062 13.742 16.406 13.8294 16.3967 13.9362C16.3782 14.1494 16.3249 14.4279 16.2167 14.7296C16.1259 14.9827 15.8438 15.2566 15.4853 15.4853C15.1317 15.7109 14.7537 15.8609 14.5281 15.8945C14.0729 15.9621 13.5099 15.9885 12.8939 15.7937L12.8938 15.7937C12.4991 15.669 11.9965 15.5039 11.3523 15.2268L11.3522 15.2267C8.8467 14.1501 7.14629 11.7299 6.80896 11.2497C6.78459 11.2151 6.76734 11.1905 6.75741 11.1773L6.75501 11.1741C6.68477 11.0808 6.41703 10.7251 6.16567 10.2324C5.9099 9.73103 5.68003 9.10491 5.68003 8.47975C5.68003 7.30493 6.2522 6.69689 6.53112 6.40048C6.55063 6.37975 6.56871 6.36054 6.58505 6.34276L13.7203 12.545ZM9.76046 12.3675L9.76045 12.3675C8.92309 11.6241 8.36112 10.7104 8.19807 10.4322L8.19795 10.432C8.09227 10.2511 8.07823 10.0847 8.13986 9.93208C8.16721 9.86435 8.20597 9.80834 8.24039 9.76407C8.25821 9.74116 8.28465 9.70973 8.30619 9.68412C8.31815 9.66991 8.3286 9.65749 8.33523 9.64932C8.48267 9.4671 8.62904 9.28191 8.74936 9.12052C8.87271 8.95507 8.95948 8.8267 8.99616 8.75364L8.99618 8.75358C9.04631 8.6538 9.0293 8.5674 8.97328 8.45601L8.97314 8.45572C8.93475 8.37908 8.77655 7.99901 8.60521 7.58476C8.54546 7.44028 8.48344 7.28999 8.42315 7.14389C8.30771 6.86413 8.19859 6.59972 8.12381 6.42079C8.0215 6.17649 7.93589 6.11406 7.89484 6.09475C7.85714 6.07701 7.83469 6.07718 7.78628 6.07755C7.76084 6.07775 7.72823 6.078 7.68247 6.07573L7.68244 6.07573C7.52824 6.06807 7.34988 6.06644 7.16778 6.06644L9.76046 12.3675ZM9.76046 12.3675C10.663 13.1686 11.4575 13.5105 11.8375 13.6741C11.9086 13.7047 11.9651 13.729 12.0052 13.749M9.76046 12.3675L12.0052 13.749M12.0052 13.749C12.1553 13.8237 12.3061 13.8721 12.4576 13.8537M12.0052 13.749L12.4576 13.8537M12.4576 13.8537C12.6173 13.8344 12.7385 13.7465 12.8375 13.6338L12.4576 13.8537ZM11.0421 20.1699H11.0422L1.94141 10.9014L1.74141 10.9013C1.74141 10.9014 1.74141 10.9014 1.74141 10.9014C1.74058 12.6511 2.2325 14.3556 3.16419 15.8304L3.33356 16.0985L2.43722 19.357L2.34532 19.6911L2.68058 19.6036L6.04592 18.725L6.30652 18.879L6.30662 18.8791C7.73564 19.7227 9.37297 20.1692 11.0421 20.1699Z" fill="#363131" stroke="#EEE2D7" stroke-width="0.4"/>
</g>
<defs>
<clipPath id="clip0">
<rect width="22" height="22" fill="white"/>
</clipPath>
</defs>
</svg>
