<svg width="847" height="332" fill="none" xmlns="http://www.w3.org/2000/svg"><path clip-rule="evenodd" d="M667.073-19.12c-50.506 62.041-145.181 53.597-215.371 92.023-69.045 37.799-111.457 132.628-190.162 129.991-78.637-2.636-134.905-78.641-180.958-142.429-39.458-54.654-33.94-125.547-57.97-188.511-31.315-82.057-120.515-149.018-103.73-235.192 16.996-87.251 100.196-156.46 185.145-182.773 79.842-24.733 156.026 43.465 239.268 51.307 86.526 8.151 179.201-48.597 254.284-4.811 78.481 45.767 119.553 140.539 132.552 230.398 12.616 87.211-7.438 181.674-63.058 249.998z" stroke="#A2A2A2"/><path clip-rule="evenodd" d="M277.763-573.767c52.001 3.438 92.867 73.448 143.445 102.581 49.752 28.657 112.812 9.77 148.774 65.738 35.931 55.919 28.003 133.701 20.797 198.167-6.174 55.235-40.952 87.53-58.182 136.293-22.455 63.547-10.73 159.576-57.763 191.838-47.621 32.665-118.311 10.188-170.359-35.36-48.92-42.81-53.939-130.434-89.681-192.202-37.152-64.206-106.66-99.608-122.238-174.029-16.283-77.79 7.336-154.588 41.98-209.399 33.622-53.196 85.96-87.414 143.227-83.627z" stroke="#CECECE"/></svg>