<svg width="798" height="793" fill="none" xmlns="http://www.w3.org/2000/svg"><path clip-rule="evenodd" d="M322.221 101.11c51.769-1.246 87.457 48.924 135.896 67.31 47.647 18.086 112.137-.947 143.961 38.916 31.797 39.829 18.094 99.526 6.101 149.051-10.276 42.433-47.466 69.556-68.322 107.891-27.181 49.958-22.577 122.063-72.025 150.07-50.066 28.358-119.119 16.523-167.81-14.228-45.765-28.903-44.283-95.119-75.457-139.407-32.405-46.034-99.316-67.78-109.378-123.179-10.518-57.907 18.811-118.02 57.537-162.244 37.585-42.921 92.485-72.808 149.497-74.18z" stroke="#CECECE"/><path clip-rule="evenodd" d="M624.425 223.53c23.322 50.3-10.679 106.722-8.045 162.118 2.591 54.492 48.798 109.703 23.262 157.939-25.513 48.193-89.948 60.178-143.67 69.507-46.03 7.993-88.523-16.965-135.047-21.108-60.631-5.398-129.428 29.849-178.022-6.768-49.202-37.075-67.064-109.921-57.672-170.835 8.829-57.253 74.444-84.016 104.6-133.498 31.345-51.434 24.122-126.401 74.194-159.889 52.339-35.003 123.853-31.823 183.785-12.644 58.165 18.614 110.931 59.784 136.615 115.178z" stroke="#A2A2A2"/></svg>