<svg width="750" height="882" fill="none" xmlns="http://www.w3.org/2000/svg"><path clip-rule="evenodd" d="M364.567 292.739c51.768-1.246 87.457 48.924 135.895 67.31 47.648 18.085 112.138-.947 143.962 38.916 31.797 39.828 18.094 99.526 6.101 149.05-10.276 42.434-47.466 69.557-68.323 107.891-27.18 49.959-22.576 122.064-72.024 150.071-50.066 28.357-119.119 16.522-167.811-14.228-45.764-28.903-44.283-95.119-75.457-139.407-32.404-46.035-99.315-67.78-109.377-123.179-10.518-57.907 18.811-118.021 57.537-162.244 37.585-42.921 92.485-72.808 149.497-74.18z" stroke="#CECECE"/><path clip-rule="evenodd" d="M240.11 115.546c50.672-10.672 94.917 32.143 145.897 41.38 50.148 9.087 110.081-21.394 148.646 11.992 38.531 33.357 35.952 94.553 33.198 145.434-2.359 43.596-33.975 77.051-47.486 118.548-17.607 54.079.078 124.133-43.429 160.694-44.05 37.017-114.104 37.983-167.589 16.634-50.271-20.066-60.898-85.441-99.63-123.296-40.261-39.348-110.017-48.518-130.02-101.151-20.908-55.015-3.042-119.471 26.964-170.019 29.121-49.059 77.645-88.463 133.449-100.216z" stroke="#A1A1A1"/></svg>