<svg width="20" height="28" fill="none" xmlns="http://www.w3.org/2000/svg"><g clip-path="url(#clip0)"><path d="M16.831 10.53c-1.617-2.594-3.913-4.751-6.667-6.262L9.674 4l-.49.268c-2.8 1.53-5.125 3.733-6.742 6.385a16.73 16.73 0 00-2.454 9.324c.097 2.713 1.193 4.997 3.168 6.602 1.512 1.23 3.451 1.98 5.54 2.159v3.2h1.957V17.114H8.696v9.759C5.39 26.51 2.1 24.299 1.943 19.914a15.007 15.007 0 012.063-8.095C5.359 9.507 7.31 7.557 9.674 6.152c2.365 1.405 4.315 3.355 5.668 5.667a15.008 15.008 0 012.063 8.095c-.126 3.508-2.257 5.624-4.796 6.517v1.96a9.733 9.733 0 003.583-1.812c1.975-1.606 3.071-3.889 3.168-6.602a16.729 16.729 0 00-2.53-9.447z" fill="#262626"/></g><defs><clipPath id="clip0"><path fill="#fff" d="M0 0h20v28H0z"/></clipPath></defs></svg>