<svg width="28" height="28" fill="none" xmlns="http://www.w3.org/2000/svg"><path d="M12.907.92v.002l1.303 6.424h0c.01.052.016.104.016.156-.003 1.346-.577 2.653-1.63 3.694-1.054 1.04-2.52 1.748-4.146 1.997l-.085.013v13.57c0 .25-.12.496-.345.68a1.36 1.36 0 01-.857.29c-.325 0-.633-.105-.858-.29a.885.885 0 01-.345-.68v-13.57l-.084-.013c-1.627-.248-3.093-.957-4.146-1.997S.102 8.848.1 7.502H0h.1c0-.052.005-.104.016-.156h0L1.418.922h0V.92a.861.861 0 01.16-.352 1.09 1.09 0 01.318-.281A1.35 1.35 0 012.33.126a1.474 1.474 0 01.923.126c.135.07.25.16.34.265A.89.89 0 013.78.86a.785.785 0 01.011.372v.001L2.508 7.566l-.002.01v.012c.027 1.012.536 1.97 1.407 2.671.871.7 2.038 1.09 3.25 1.09 1.212 0 2.378-.39 3.25-1.09.87-.7 1.38-1.659 1.407-2.67v-.012l-.002-.011-1.284-6.332h0a.784.784 0 01.012-.373.89.89 0 01.187-.344c.09-.105.206-.195.341-.265a1.474 1.474 0 01.923-.126c.156.03.303.085.432.162.13.076.237.172.319.28a.86.86 0 01.16.353zm12.588 18.36v-.1h-7.914c-.17 0-.34-.029-.496-.086a1.223 1.223 0 01-.405-.242.943.943 0 01-.245-.35.79.79 0 01-.05-.392 44.948 44.948 0 011.91-7.923c1.954-5.669 4.648-9.021 7.986-10.02a1.47 1.47 0 01.576-.051c.195.02.38.08.538.171.159.092.286.212.373.35a.821.821 0 01.132.44v25.699c0 .25-.12.496-.345.68-.225.184-.533.29-.857.29-.325 0-.633-.105-.858-.29a.885.885 0 01-.345-.68V19.28zm0-16.28v-.202l-.16.122c-1.826 1.39-3.432 4.04-4.723 7.786h0a44.254 44.254 0 00-1.643 6.416l-.021.117h6.547V3zM5.96 6.432V1.078c0-.25.121-.496.345-.68.225-.185.533-.29.858-.29.324 0 .633.105.857.29.224.184.345.43.345.68v5.354c0 .25-.12.495-.345.68a1.36 1.36 0 01-.857.29c-.325 0-.633-.106-.858-.29a.885.885 0 01-.345-.68z" fill="#262626" stroke="#F7F7F7" stroke-width=".2"/></svg>