<svg width="28" height="28" fill="none" xmlns="http://www.w3.org/2000/svg"><path d="M17.5 26.25h-2.625a1.752 1.752 0 01-1.75-1.75v-4.375h1.75V24.5H17.5v-4.375h1.75v-3.5a.876.876 0 00-.875-.875h-7.63l-1.75-5.25H3.5a.876.876 0 00-.875.875v5.25h1.75V24.5h3.5v-6.125h1.75V24.5a1.752 1.752 0 01-1.75 1.75h-3.5a1.752 1.752 0 01-1.75-1.75v-6.125a1.752 1.752 0 01-1.75-1.75v-5.25A2.628 2.628 0 013.5 8.75h5.495a1.748 1.748 0 011.66 1.196L12.005 14h6.37A2.628 2.628 0 0121 16.625v3.5a1.752 1.752 0 01-1.75 1.75V24.5a1.752 1.752 0 01-1.75 1.75zm7 0h-1.75v-9.625h2.625v-5.25a.876.876 0 00-.875-.875H21V8.75h3.5a2.628 2.628 0 012.625 2.625v5.25a1.752 1.752 0 01-1.75 1.75H24.5v7.875zM6.125 7.875a3.5 3.5 0 110-7 3.5 3.5 0 010 7zm0-5.25a1.75 1.75 0 100 3.5 1.75 1.75 0 000-3.5zm15.75 5.25a3.5 3.5 0 110-7 3.5 3.5 0 010 7zm0-5.25a1.75 1.75 0 100 3.5 1.75 1.75 0 000-3.5z" fill="#262626"/><path d="M16.188 13.125a3.062 3.062 0 110-6.125 3.062 3.062 0 010 6.125zm0-4.375a1.313 1.313 0 100 2.625 1.313 1.313 0 000-2.625z" fill="#262626"/></svg>