<svg width="24" height="28" fill="none" xmlns="http://www.w3.org/2000/svg"><path d="M22.98 12.602a10.906 10.906 0 00-2.826-3.585l-.991-.831a.301.301 0 00-.37.001.252.252 0 00-.074.101l-.443 1.161c-.276.729-.784 1.473-1.503 2.204a.222.222 0 01-.14.062.2.2 0 01-.147-.047.176.176 0 01-.068-.149c.126-1.874-.487-3.987-1.83-6.287A11.59 11.59 0 0010.002.79L8.594.034c-.184-.1-.419.031-.409.227l.075 1.494c.051 1.021-.078 1.924-.385 2.674a8.72 8.72 0 01-1.602 2.537A9.73 9.73 0 014.653 8.4a11.262 11.262 0 00-3.419 3.782A10.059 10.059 0 000 16.984c0 1.47.317 2.892.944 4.233a10.89 10.89 0 002.574 3.452 12.114 12.114 0 003.815 2.325c1.48.567 3.048.853 4.667.853 1.62 0 3.188-.287 4.667-.85a12.02 12.02 0 003.815-2.325 10.791 10.791 0 002.574-3.451A9.917 9.917 0 0024 16.988c0-1.52-.34-2.995-1.02-4.386zm-4.128 10.56c-1.83 1.656-4.261 2.565-6.852 2.565-2.59 0-5.022-.909-6.852-2.564-1.824-1.653-2.83-3.844-2.83-6.175 0-1.354.334-2.652.992-3.86.641-1.18 1.596-2.235 2.755-3.047a11.49 11.49 0 001.997-1.768c.853-.95 1.52-2.007 1.985-3.143a6.95 6.95 0 00.412-1.448 9.581 9.581 0 012.086 2.503c1.14 1.948 1.664 3.682 1.562 5.157-.025.348.038.696.182 1.018.144.322.366.61.65.843.245.203.533.36.845.46.313.1.644.143.975.126a2.593 2.593 0 001.739-.76 10.36 10.36 0 001.172-1.42 8.463 8.463 0 011.194 1.818 7.99 7.99 0 01.818 3.52c0 2.332-1.006 4.526-2.83 6.176z" fill="#262626"/></svg>