<svg width="20" height="28" fill="none" xmlns="http://www.w3.org/2000/svg"><g clip-path="url(#clip0)" fill="#262626"><path d="M17.292.875H2.708c-.773 0-1.514.278-2.061.77C.1 2.137-.208 2.805-.208 3.5v21.875c0 .464.205.909.57 1.237.364.328.859.513 1.374.513h16.528c.515 0 1.01-.185 1.374-.513.365-.328.57-.773.57-1.237V3.5c0-.696-.308-1.363-.855-1.855a3.092 3.092 0 00-2.061-.77zm.972 24.5H1.736v-12.25h16.528v12.25zm0-14H1.736V3.5c0-.232.103-.454.285-.618a1.03 1.03 0 01.687-.257h14.584c.257 0 .505.093.687.257a.834.834 0 01.285.618v7.875z"/><path d="M3.195 15.313h1.944v5.25H3.195v-5.25zm0-9.625h1.944v3.5H3.195v-3.5z"/></g><defs><clipPath id="clip0"><path fill="#fff" d="M0 0h20v28H0z"/></clipPath></defs></svg>