<svg width="22" height="22" fill="none" xmlns="http://www.w3.org/2000/svg"><g clip-path="url(#clip0)" fill="#363131" stroke="#EEE2D7" stroke-width=".4"><path d="M21.28 3.872V3.87a5.168 5.168 0 00-1.225-1.879l-.003-.003h0a5.215 5.215 0 00-1.874-1.22l-.002-.001C17.498.504 16.72.319 15.571.269h-.001C14.397.213 14.027.2 11.04.2 8.056.2 7.686.213 6.517.264L21.28 3.872zm0 0c.263.674.448 1.455.499 2.605l-.498-2.605zM3.91.762h0c-.713.27-1.35.684-1.88 1.226l-.002.003h0a5.217 5.217 0 00-1.22 1.874l-.002.002h0C.543 4.546.358 5.323.307 6.473h0C.252 7.646.24 8.016.24 11.003c0 2.985.013 3.355.064 4.524L3.909.763zm0 0h.001m-.001 0h.001m0 0C4.584.5 5.366.315 6.516.264L3.91.762zm-3.11 17.37v.002c.27.712.688 1.35 1.226 1.88l.002.002c.53.538 1.172.956 1.875 1.22l.002.002c.678.262 1.456.447 2.605.498 1.17.051 1.54.064 4.526.064 2.986 0 3.356-.013 4.525-.064 1.15-.051 1.931-.236 2.605-.498h0a5.427 5.427 0 003.105-3.105H.802zm0 0C.54 17.46.354 16.678.303 15.528l.498 2.606zm19.005-.568a3.85 3.85 0 01-2.204 2.203c-.406.158-1.012.343-2.104.391-1.165.052-1.516.065-4.453.065-2.936 0-3.292-.013-4.452-.065 0 0 0 0 0 0l.008-.2 13.205-2.394zm0 0c.158-.407.343-1.009.391-2.105m-.391 2.105l-4.304-15.7c1.096.047 1.697.232 2.104.39.502.186.961.48 1.334.867.385.376.68.83.866 1.334.158.406.343 1.012.391 2.103m0 8.901s0 0 0 0l-.2-.009.2.01zm0 0c.052-1.165.065-1.512.065-4.448 0-2.937-.013-3.288-.065-4.453m0 0s0 0 0 0l-.2.009.2-.009zm1.573 8.97c-.05 1.149-.236 1.926-.498 2.605l.498-2.605zM3.155 18.9c.373.386.831.68 1.334.866L6.597 1.863c-1.091.048-1.697.233-2.104.391a3.6 3.6 0 00-1.333.866 3.55 3.55 0 00-.872 1.335c-.157.406-.342 1.008-.39 2.103-.052 1.16-.065 1.516-.065 4.453 0 2.936.013 3.288.065 4.453.048 1.09.232 1.696.39 2.103.187.503.482.957.867 1.334zm7.894-17.103c-2.936 0-3.287.013-4.452.065h8.905c-1.16-.052-1.512-.065-4.453-.065z"/><path d="M5.59 11.002a5.453 5.453 0 015.45-5.451 5.453 5.453 0 015.452 5.451 5.453 5.453 0 01-5.451 5.452 5.453 5.453 0 01-5.452-5.452zm1.585 0a3.867 3.867 0 107.733-.001 3.867 3.867 0 00-7.733.001zm10.86-5.875a1.12 1.12 0 11-2.239 0 1.12 1.12 0 012.24 0z"/></g><defs><clipPath id="clip0"><path fill="#fff" d="M0 0h22v22H0z"/></clipPath></defs></svg>