<svg width="59" height="34" fill="none" xmlns="http://www.w3.org/2000/svg"><path d="M5.67 16.36c-1.068 0-1.98-.198-2.736-.594a4.105 4.105 0 01-1.692-1.692c-.372-.732-.558-1.566-.558-2.502 0-1.248.312-2.472.936-3.672a8.27 8.27 0 012.592-2.97 6.22 6.22 0 013.672-1.17c1.056 0 2.022.18 2.899.54.876.348 1.314.978 1.314 1.89 0 .456-.072 1.044-.216 1.764h-.54c-.024-1.104-.294-1.944-.81-2.52-.517-.576-1.267-.864-2.25-.864-1.129 0-2.077.366-2.845 1.098-.768.732-1.338 1.656-1.71 2.772a10.962 10.962 0 00-.54 3.384c0 1.128.252 2.034.756 2.718.516.672 1.32 1.008 2.412 1.008.84 0 1.65-.222 2.43-.666.792-.444 1.47-1.08 2.034-1.908l.54.486c-.744 1.008-1.566 1.746-2.466 2.214-.9.456-1.974.684-3.222.684zm10.47-.18c-1.08 0-1.925-.318-2.537-.954-.612-.636-.918-1.47-.918-2.502 0-.924.204-1.794.612-2.61a5.165 5.165 0 011.764-1.998c.768-.504 1.644-.756 2.628-.756 1.068 0 1.896.198 2.484.594.588.384.882.918.882 1.602 0 .96-.402 1.674-1.206 2.142-.804.468-1.758.702-2.862.702h-1.89a5.353 5.353 0 00-.108 1.008c0 .648.138 1.14.414 1.476.276.324.66.486 1.152.486.576 0 1.08-.126 1.512-.378.432-.264.87-.636 1.314-1.116l.486.414c-.444.54-.96.99-1.548 1.35-.576.36-1.302.54-2.178.54zm.99-4.59c.445 0 .805-.222 1.08-.666a2.67 2.67 0 00.415-1.44c0-.432-.108-.756-.324-.972a.974.974 0 00-.756-.342c-1.152 0-1.92 1.14-2.304 3.42h1.89zm11.698-3.87c.131.12.24.276.323.468.096.192.145.306.145.342l-1.044.702A1.183 1.183 0 0028 8.89a1.18 1.18 0 00-.864-.36c-.709 0-1.278.186-1.71.558-.012.06-.018.15-.018.27 0 .06-.007.15-.018.27 0 .12-.012.228-.037.324L24.291 16h-2.34l.828-4.896c.216-1.296.325-1.98.325-2.052 0-.336-.078-.582-.235-.738-.143-.156-.401-.234-.773-.234h-.18l.09-.54h1.782c.407 0 .72.054.936.162a.882.882 0 01.468.504c.756-.564 1.56-.846 2.412-.846.515 0 .924.12 1.224.36zm3.565 8.46c-1.032 0-1.812-.3-2.34-.9-.528-.6-.792-1.38-.792-2.34 0-.864.186-1.728.558-2.592a5.595 5.595 0 011.638-2.142 3.916 3.916 0 012.484-.846c.624 0 1.116.168 1.476.504.18.156.318.318.414.486h.09l.774-.81h1.53l-1.17 6.66-.306 1.8h-1.53l-.504-.81h-.09a2.41 2.41 0 01-.576.504c-.456.324-1.008.486-1.656.486zm.504-.81c.252 0 .48-.048.684-.144a3.7 3.7 0 00.63-.432c.18-.156.348-.354.504-.594l.864-4.86a1.892 1.892 0 00-.306-.576c-.3-.396-.672-.594-1.116-.594-.576 0-1.056.312-1.44.936-.372.612-.648 1.332-.828 2.16-.168.828-.252 1.542-.252 2.142 0 1.308.42 1.962 1.26 1.962zM20.576 30l.828-4.896c.216-1.296.325-1.98.325-2.052 0-.336-.078-.582-.235-.738-.143-.156-.401-.234-.773-.234h-.18l.09-.54h1.782c.803 0 1.277.228 1.421.684h.073c.744-.576 1.547-.864 2.412-.864.588 0 1.073.114 1.457.342.384.216.666.444.846.684a3.93 3.93 0 011.134-.738c.433-.192.966-.288 1.602-.288 1.777 0 2.665.792 2.665 2.376 0 .18-.06.63-.18 1.35-.109.708-.39 2.346-.847 4.914h-2.34c.457-2.568.739-4.212.847-4.932.12-.72.18-1.164.18-1.332 0-.984-.372-1.476-1.116-1.476a2.3 2.3 0 00-.936.198c-.288.12-.529.282-.72.486l.035.162a4.2 4.2 0 01.054.522c0 .156-.078.696-.233 1.62-.145.912-.415 2.496-.81 4.752h-2.34c.456-2.568.738-4.212.845-4.932.12-.72.18-1.164.18-1.332 0-.984-.372-1.476-1.116-1.476-.252 0-.527.078-.828.234a2.382 2.382 0 00-.683.486v.18a.632.632 0 01.017.18c0 .348-.372 2.568-1.116 6.66h-2.34zm17.733-9.432c-.372 0-.654-.102-.846-.306a1.085 1.085 0 01-.288-.774c0-.348.108-.648.324-.9.228-.264.516-.396.864-.396.372 0 .654.102.846.306.192.204.288.462.288.774 0 .384-.102.696-.306.936-.192.24-.486.36-.882.36zm-1.764 3.312c.06-.384.09-.654.09-.81 0-.336-.078-.582-.234-.738-.156-.168-.42-.252-.792-.252h-.18l.09-.54h2.16c.48 0 .822.09 1.026.27.204.18.306.492.306.936 0 .228-.042.606-.126 1.134L37.823 30h-2.34l1.062-6.12zm7.317 6.3c-1.2 0-2.106-.312-2.718-.936-.612-.636-.918-1.464-.918-2.484 0-.984.216-1.884.648-2.7a4.941 4.941 0 011.818-1.962c.792-.492 1.698-.738 2.718-.738.816 0 1.506.09 2.07.27.564.168.846.558.846 1.17 0 .336-.078.906-.234 1.71h-.54c.012-.096.018-.24.018-.432 0-.636-.174-1.11-.522-1.422-.348-.324-.852-.486-1.512-.486-.672 0-1.23.276-1.674.828-.432.552-.75 1.218-.954 1.998a8.495 8.495 0 00-.306 2.178c0 1.464.588 2.196 1.764 2.196.576 0 1.08-.126 1.512-.378.432-.264.87-.636 1.314-1.116l.486.414a6.27 6.27 0 01-1.566 1.368c-.576.348-1.326.522-2.25.522zm8.443 0c-1.032 0-1.812-.3-2.34-.9-.528-.6-.792-1.38-.792-2.34 0-.864.186-1.728.558-2.592a5.595 5.595 0 011.638-2.142 3.916 3.916 0 012.484-.846c.624 0 1.116.168 1.476.504.18.156.318.318.414.486h.09l.774-.81h1.53l-1.17 6.66-.306 1.8h-1.53l-.504-.81h-.09a2.41 2.41 0 01-.576.504c-.456.324-1.008.486-1.656.486zm.504-.81c.252 0 .48-.048.684-.144a3.7 3.7 0 00.63-.432c.18-.156.348-.354.504-.594l.864-4.86a1.892 1.892 0 00-.306-.576c-.3-.396-.672-.594-1.116-.594-.576 0-1.056.312-1.44.936-.372.612-.648 1.332-.828 2.16-.168.828-.252 1.542-.252 2.142 0 1.308.42 1.962 1.26 1.962z" fill="#1D1818"/></svg>