<svg width="30" height="29" fill="none" xmlns="http://www.w3.org/2000/svg"><g clip-path="url(#clip0)" filter="url(#filter0_d)"><path d="M15.74 16.598l.115.078 5.532 3.753a.672.672 0 00.633.064h0a.67.67 0 00.402-.494s0 0 0 0L25.84 2.074V2.07a.63.63 0 00.011-.076h0a.69.69 0 00.001-.108l.2-.014M15.74 16.598l9.482-15.331s0 0 0 0c.157.01.31.073.43.19h0a.58.58 0 01.034.037l.001.001c.1.114.154.252.164.393l.2-.015M15.74 16.598l-.114.082m.114-.082l-.114.082M26.051 1.873a.868.868 0 00-.213-.51l-3.74 19.315a.87.87 0 00.52-.642l3.417-17.925a.835.835 0 00.016-.238zM15.626 16.68l-2.967 2.134a.672.672 0 01-1.04-.373l-1.49-5.645-.026-.1m5.523 3.984l-5.523-3.984m0 0l-.096-.036-5.323-2.036m5.419 2.072l-5.419-2.072m0 0s0 0 0 0a.67.67 0 01-.008-1.25s0 0 0 0l20.24-8.053h0M4.683 10.624l20.231-9.303m0 0l.005-.002m-.005.002l.005-.002m0 0a.671.671 0 01.22-.052m-.22.052l.22-.052m0 0l-.012-.2.013.2zM16.114 15.23h0l.003.002 4.928 3.343.252.17.056-.299L24.011 4.5l.117-.617-.452.435-9.601 9.239-.178.17.204.14 1.992 1.35h0l.007.005a.301.301 0 01.013.01zm-4.8-3.205l.547 1.932.732 2.915.072.286.24-.172 1.42-1.023.233-.167-.237-.16-1.843-1.251a2.703 2.703 0 01-.134-.311 9.448 9.448 0 00-.082-.204l-.003-.006.004-.05c.007-.082.014-.167.03-.255.022-.13.053-.2.077-.223l10.765-9.687-.21-.334-15.68 6.482-.465.192.47.18 3.654 1.397h0a.671.671 0 01.41.455h0v.004zm1.17 2.368v0z" fill="#363131" stroke="#EEE2D7" stroke-width=".4"/></g><defs><clipPath id="clip0"><path fill="#fff" transform="translate(4)" d="M0 0h22v22H0z"/></clipPath><filter id="filter0_d" x="0" y="0" width="30" height="30" filterUnits="userSpaceOnUse" color-interpolation-filters="sRGB"><feFlood flood-opacity="0" result="BackgroundImageFix"/><feColorMatrix in="SourceAlpha" values="0 0 0 0 0 0 0 0 0 0 0 0 0 0 0 0 0 0 127 0" result="hardAlpha"/><feOffset dy="4"/><feGaussianBlur stdDeviation="2"/><feComposite in2="hardAlpha" operator="out"/><feColorMatrix values="0 0 0 0 0 0 0 0 0 0 0 0 0 0 0 0 0 0 0.25 0"/><feBlend in2="BackgroundImageFix" result="effect1_dropShadow"/><feBlend in="SourceGraphic" in2="effect1_dropShadow" result="shape"/></filter></defs></svg>