<svg width="847" height="332" viewBox="0 0 847 332" fill="none" xmlns="http://www.w3.org/2000/svg">
<path fill-rule="evenodd" clip-rule="evenodd" d="M667.073 -19.1195C616.567 42.9214 521.892 34.4767 451.702 72.9031C382.657 110.702 340.245 205.531 261.54 202.894C182.903 200.258 126.635 124.253 80.5822 60.4652C41.1239 5.81124 46.642 -65.0815 22.6124 -128.046C-8.70317 -210.103 -97.903 -277.064 -81.1175 -363.238C-64.1221 -450.489 19.0784 -519.698 104.027 -546.011C183.869 -570.744 260.053 -502.546 343.295 -494.704C429.821 -486.553 522.496 -543.301 597.579 -499.515C676.06 -453.748 717.132 -358.976 730.131 -269.117C742.747 -181.906 722.693 -87.4431 667.073 -19.1195Z" stroke="#A2A2A2"/>
<path fill-rule="evenodd" clip-rule="evenodd" d="M277.763 -573.767C329.764 -570.329 370.63 -500.319 421.208 -471.186C470.96 -442.529 534.02 -461.416 569.982 -405.448C605.913 -349.529 597.985 -271.747 590.779 -207.281C584.605 -152.046 549.827 -119.751 532.597 -70.9884C510.142 -7.44093 521.867 88.5879 474.834 120.85C427.213 153.515 356.523 131.038 304.475 85.4907C255.555 42.6806 250.536 -44.944 214.794 -106.712C177.642 -170.918 108.134 -206.32 92.5562 -280.741C76.2733 -358.531 99.8922 -435.329 134.536 -490.14C168.158 -543.336 220.496 -577.554 277.763 -573.767Z" stroke="#CECECE"/>
</svg>
